<svg width="375" height="99" viewBox="0 0 375 99" fill="none" xmlns="http://www.w3.org/2000/svg">
<g filter="url(#filter0_d_192_2688)">
<rect x="24" y="22" width="326" height="57" rx="15" fill="url(#paint0_linear_192_2688)"/>
</g>
<path d="M139.238 55H141.338L142.136 52.69H145.664L146.434 55H148.744L145.076 44.598H142.906L139.238 55ZM142.696 51.038L143.914 47.51H143.942L145.132 51.038H142.696ZM152.634 55.112C153.74 55.112 154.44 54.552 154.93 53.88C154.93 54.258 155 54.818 155.098 55H157.408C157.24 54.622 157.184 54.076 157.184 53.18V44.64H154.93V48.476C154.398 47.748 153.67 47.384 152.662 47.384C150.954 47.384 149.764 48.756 149.764 51.332C149.764 53.908 150.94 55.112 152.634 55.112ZM153.474 53.418C152.466 53.418 152.018 52.564 152.018 51.318C152.018 49.96 152.508 49.246 153.446 49.246C154.034 49.246 154.44 49.47 154.93 49.932V52.69C154.566 53.068 154.048 53.418 153.474 53.418ZM161.871 55.112C162.977 55.112 163.677 54.552 164.167 53.88C164.167 54.258 164.237 54.818 164.335 55H166.645C166.477 54.622 166.421 54.076 166.421 53.18V44.64H164.167V48.476C163.635 47.748 162.907 47.384 161.899 47.384C160.191 47.384 159.001 48.756 159.001 51.332C159.001 53.908 160.177 55.112 161.871 55.112ZM162.711 53.418C161.703 53.418 161.255 52.564 161.255 51.318C161.255 49.96 161.745 49.246 162.683 49.246C163.271 49.246 163.677 49.47 164.167 49.932V52.69C163.803 53.068 163.285 53.418 162.711 53.418ZM175.013 55H177.295V46.544H180.389V44.64H171.933V46.544H175.013V55ZM183.723 55.154C185.529 55.154 187.531 54.174 187.531 51.276C187.531 48.35 185.529 47.384 183.723 47.384C181.903 47.384 179.901 48.35 179.901 51.276C179.901 54.174 181.917 55.154 183.723 55.154ZM183.723 53.572C182.575 53.572 182.155 52.536 182.155 51.29C182.155 49.946 182.645 49.036 183.723 49.036C184.843 49.036 185.277 50.044 185.277 51.29C185.277 52.648 184.787 53.572 183.723 53.572ZM198.022 55.196C200.626 55.196 201.858 53.74 202.362 51.654L200.22 51.178C199.856 52.592 199.254 53.362 198.036 53.362C196.468 53.362 195.6 51.99 195.6 49.806C195.6 47.664 196.44 46.334 198.008 46.334C199.226 46.334 199.73 47.146 200.066 48.336L202.222 47.706C201.774 45.844 200.64 44.444 198.022 44.444C195.404 44.444 193.318 46.208 193.318 49.806C193.318 53.46 195.32 55.196 198.022 55.196ZM204.297 55H206.551V49.988C207.055 49.554 207.573 49.246 208.189 49.246C208.805 49.246 209.057 49.596 209.057 50.268V55H211.311V49.554C211.311 48.014 210.401 47.384 209.127 47.384C207.825 47.384 206.999 48.126 206.551 48.714V44.64H204.297V55ZM215.09 55.112C216.196 55.112 217.008 54.678 217.694 53.908C217.694 54.328 217.764 54.692 217.862 55H220.102C219.948 54.622 219.892 54.076 219.892 53.18V50.31C219.892 48.392 219.052 47.384 217.008 47.384C215.146 47.384 214.026 48.042 213.284 48.714L214.236 50.002C214.922 49.47 215.734 49.078 216.686 49.078C217.414 49.078 217.694 49.428 217.694 49.974V50.156C214.418 50.422 212.962 51.374 212.962 53.096C212.962 54.37 213.942 55.112 215.09 55.112ZM215.986 53.418C215.496 53.418 215.16 53.18 215.16 52.704C215.16 52.018 215.916 51.57 217.694 51.388V52.774C217.316 53.152 216.77 53.418 215.986 53.418ZM222.032 55H224.286V50.366C224.706 49.82 225.378 49.344 226.274 49.344C226.414 49.344 226.778 49.372 226.862 49.386L226.89 47.384H226.82C225.42 47.384 224.706 48.154 224.3 48.784H224.286V47.538H222.032V55ZM231.588 55.098C232.078 55.098 232.904 55.028 233.072 54.986V53.376C232.918 53.432 232.582 53.46 232.33 53.46C231.518 53.46 231.294 53.208 231.294 52.41V49.176H233.212V47.538H231.294V44.976H229.054V47.538H227.808V49.176H229.054V52.9C229.054 54.3 229.376 55.098 231.588 55.098Z" fill="#FEFEFF"/>
<defs>
<filter id="filter0_d_192_2688" x="-15" y="0" width="426" height="157" filterUnits="userSpaceOnUse" color-interpolation-filters="sRGB">
<feFlood flood-opacity="0" result="BackgroundImageFix"/>
<feColorMatrix in="SourceAlpha" type="matrix" values="0 0 0 0 0 0 0 0 0 0 0 0 0 0 0 0 0 0 127 0" result="hardAlpha"/>
<feOffset dx="11" dy="28"/>
<feGaussianBlur stdDeviation="25"/>
<feColorMatrix type="matrix" values="0 0 0 0 0.0784314 0 0 0 0 0.305882 0 0 0 0 0.352941 0 0 0 0.2 0"/>
<feBlend mode="normal" in2="BackgroundImageFix" result="effect1_dropShadow_192_2688"/>
<feBlend mode="normal" in="SourceGraphic" in2="effect1_dropShadow_192_2688" result="shape"/>
</filter>
<linearGradient id="paint0_linear_192_2688" x1="24" y1="18.5" x2="239.868" y2="209.785" gradientUnits="userSpaceOnUse">
<stop stop-color="#53E88B"/>
<stop offset="1" stop-color="#15BE77"/>
</linearGradient>
</defs>
</svg>
