<svg width="375" height="157" viewBox="0 0 375 157" fill="none" xmlns="http://www.w3.org/2000/svg">
<g filter="url(#filter0_d_169_23777)">
<rect x="27" y="50" width="322" height="57" rx="15" fill="#F6F6F6"/>
</g>
<path d="M147.494 84.14C146.626 84.14 145.898 84.014 145.31 83.762C144.731 83.5007 144.288 83.1647 143.98 82.754C143.681 82.334 143.523 81.8953 143.504 81.438C143.504 81.354 143.532 81.284 143.588 81.228C143.644 81.172 143.714 81.144 143.798 81.144H145.044C145.165 81.144 145.254 81.172 145.31 81.228C145.375 81.2747 145.431 81.3353 145.478 81.41C145.534 81.5873 145.641 81.7647 145.8 81.942C145.959 82.11 146.173 82.25 146.444 82.362C146.724 82.474 147.074 82.53 147.494 82.53C148.166 82.53 148.665 82.418 148.992 82.194C149.328 81.97 149.496 81.6667 149.496 81.284C149.496 81.0133 149.407 80.7987 149.23 80.64C149.053 80.472 148.777 80.3227 148.404 80.192C148.04 80.052 147.555 79.9073 146.948 79.758C146.248 79.59 145.66 79.3893 145.184 79.156C144.717 78.9133 144.363 78.61 144.12 78.246C143.887 77.882 143.77 77.42 143.77 76.86C143.77 76.3187 143.915 75.838 144.204 75.418C144.503 74.998 144.923 74.6667 145.464 74.424C146.015 74.1813 146.668 74.06 147.424 74.06C148.031 74.06 148.567 74.144 149.034 74.312C149.501 74.4707 149.888 74.6853 150.196 74.956C150.504 75.2173 150.737 75.502 150.896 75.81C151.064 76.1087 151.153 76.4027 151.162 76.692C151.162 76.7667 151.134 76.8367 151.078 76.902C151.031 76.958 150.961 76.986 150.868 76.986H149.566C149.491 76.986 149.417 76.9673 149.342 76.93C149.267 76.8927 149.207 76.8227 149.16 76.72C149.104 76.4307 148.922 76.1833 148.614 75.978C148.306 75.7727 147.909 75.67 147.424 75.67C146.92 75.67 146.514 75.7633 146.206 75.95C145.898 76.1367 145.744 76.426 145.744 76.818C145.744 77.0793 145.819 77.2987 145.968 77.476C146.127 77.644 146.374 77.7933 146.71 77.924C147.055 78.0547 147.508 78.1947 148.068 78.344C148.861 78.5213 149.51 78.7267 150.014 78.96C150.518 79.1933 150.887 79.492 151.12 79.856C151.353 80.2107 151.47 80.6633 151.47 81.214C151.47 81.83 151.302 82.3573 150.966 82.796C150.639 83.2253 150.177 83.5567 149.58 83.79C148.983 84.0233 148.287 84.14 147.494 84.14ZM156.542 84.14C155.506 84.14 154.685 83.8413 154.078 83.244C153.472 82.6467 153.145 81.7973 153.098 80.696C153.089 80.6027 153.084 80.486 153.084 80.346C153.084 80.1967 153.089 80.08 153.098 79.996C153.136 79.2867 153.294 78.68 153.574 78.176C153.864 77.6627 154.26 77.2707 154.764 77C155.268 76.72 155.861 76.58 156.542 76.58C157.298 76.58 157.933 76.7387 158.446 77.056C158.96 77.364 159.347 77.798 159.608 78.358C159.87 78.9087 160 79.548 160 80.276V80.57C160 80.6633 159.968 80.7427 159.902 80.808C159.837 80.8733 159.753 80.906 159.65 80.906H155.002C155.002 80.906 155.002 80.92 155.002 80.948C155.002 80.976 155.002 80.9993 155.002 81.018C155.012 81.3447 155.072 81.648 155.184 81.928C155.306 82.1987 155.478 82.418 155.702 82.586C155.936 82.754 156.211 82.838 156.528 82.838C156.79 82.838 157.009 82.8007 157.186 82.726C157.364 82.642 157.508 82.5487 157.62 82.446C157.732 82.3433 157.812 82.2593 157.858 82.194C157.942 82.082 158.008 82.0167 158.054 81.998C158.11 81.97 158.19 81.956 158.292 81.956H159.496C159.59 81.956 159.664 81.984 159.72 82.04C159.786 82.096 159.814 82.166 159.804 82.25C159.795 82.3993 159.716 82.5813 159.566 82.796C159.426 83.0107 159.221 83.2207 158.95 83.426C158.68 83.6313 158.339 83.804 157.928 83.944C157.527 84.0747 157.065 84.14 156.542 84.14ZM155.002 79.73H158.096V79.688C158.096 79.324 158.036 79.0067 157.914 78.736C157.793 78.456 157.616 78.2413 157.382 78.092C157.149 77.9333 156.869 77.854 156.542 77.854C156.216 77.854 155.936 77.9333 155.702 78.092C155.469 78.2413 155.292 78.456 155.17 78.736C155.058 79.0067 155.002 79.324 155.002 79.688V79.73ZM165.249 84C164.689 84 164.218 83.902 163.835 83.706C163.452 83.51 163.168 83.2207 162.981 82.838C162.794 82.446 162.701 81.9607 162.701 81.382V78.204H161.595C161.502 78.204 161.422 78.1713 161.357 78.106C161.292 78.0407 161.259 77.9567 161.259 77.854V77.056C161.259 76.9627 161.292 76.8833 161.357 76.818C161.422 76.7527 161.502 76.72 161.595 76.72H162.701V74.396C162.701 74.3027 162.729 74.2233 162.785 74.158C162.85 74.0927 162.934 74.06 163.037 74.06H164.171C164.264 74.06 164.344 74.0927 164.409 74.158C164.474 74.2233 164.507 74.3027 164.507 74.396V76.72H166.257C166.35 76.72 166.43 76.7527 166.495 76.818C166.56 76.8833 166.593 76.9627 166.593 77.056V77.854C166.593 77.9567 166.56 78.0407 166.495 78.106C166.43 78.1713 166.35 78.204 166.257 78.204H164.507V81.242C164.507 81.6247 164.572 81.9233 164.703 82.138C164.843 82.3527 165.081 82.46 165.417 82.46H166.383C166.476 82.46 166.556 82.4927 166.621 82.558C166.686 82.6233 166.719 82.7027 166.719 82.796V83.664C166.719 83.7573 166.686 83.8367 166.621 83.902C166.556 83.9673 166.476 84 166.383 84H165.249ZM172.664 84C172.571 84 172.492 83.9673 172.426 83.902C172.361 83.8367 172.328 83.7573 172.328 83.664V74.536C172.328 74.4427 172.361 74.3633 172.426 74.298C172.492 74.2327 172.571 74.2 172.664 74.2H173.966C174.06 74.2 174.139 74.2327 174.204 74.298C174.27 74.3633 174.302 74.4427 174.302 74.536V82.334H178.74C178.843 82.334 178.927 82.3667 178.992 82.432C179.058 82.4973 179.09 82.5813 179.09 82.684V83.664C179.09 83.7573 179.058 83.8367 178.992 83.902C178.927 83.9673 178.843 84 178.74 84H172.664ZM183.892 84.14C183.145 84.14 182.515 84.0093 182.002 83.748C181.498 83.4867 181.111 83.118 180.84 82.642C180.579 82.166 180.429 81.6107 180.392 80.976C180.383 80.808 180.378 80.6027 180.378 80.36C180.378 80.1173 180.383 79.912 180.392 79.744C180.429 79.1 180.583 78.5447 180.854 78.078C181.134 77.602 181.526 77.2333 182.03 76.972C182.543 76.7107 183.164 76.58 183.892 76.58C184.62 76.58 185.236 76.7107 185.74 76.972C186.253 77.2333 186.645 77.602 186.916 78.078C187.196 78.5447 187.355 79.1 187.392 79.744C187.401 79.912 187.406 80.1173 187.406 80.36C187.406 80.6027 187.401 80.808 187.392 80.976C187.355 81.6107 187.201 82.166 186.93 82.642C186.669 83.118 186.281 83.4867 185.768 83.748C185.264 84.0093 184.639 84.14 183.892 84.14ZM183.892 82.754C184.387 82.754 184.769 82.6 185.04 82.292C185.311 81.9747 185.46 81.5127 185.488 80.906C185.497 80.766 185.502 80.584 185.502 80.36C185.502 80.136 185.497 79.954 185.488 79.814C185.46 79.2073 185.311 78.75 185.04 78.442C184.769 78.1247 184.387 77.966 183.892 77.966C183.397 77.966 183.015 78.1247 182.744 78.442C182.473 78.75 182.324 79.2073 182.296 79.814C182.287 79.954 182.282 80.136 182.282 80.36C182.282 80.584 182.287 80.766 182.296 80.906C182.324 81.5127 182.473 81.9747 182.744 82.292C183.015 82.6 183.397 82.754 183.892 82.754ZM192.607 84.14C191.935 84.14 191.343 84.014 190.829 83.762C190.325 83.51 189.929 83.146 189.639 82.67C189.359 82.1847 189.205 81.6013 189.177 80.92C189.168 80.78 189.163 80.598 189.163 80.374C189.163 80.1407 189.168 79.9493 189.177 79.8C189.205 79.1187 189.359 78.54 189.639 78.064C189.929 77.5787 190.325 77.21 190.829 76.958C191.343 76.706 191.935 76.58 192.607 76.58C193.205 76.58 193.713 76.664 194.133 76.832C194.553 76.9907 194.899 77.2007 195.169 77.462C195.44 77.714 195.641 77.98 195.771 78.26C195.911 78.5307 195.986 78.778 195.995 79.002C196.005 79.1047 195.972 79.1887 195.897 79.254C195.832 79.31 195.753 79.338 195.659 79.338H194.427C194.334 79.338 194.259 79.3147 194.203 79.268C194.157 79.2213 194.11 79.1513 194.063 79.058C193.923 78.6847 193.737 78.4233 193.503 78.274C193.279 78.1153 192.99 78.036 192.635 78.036C192.169 78.036 191.795 78.1853 191.515 78.484C191.245 78.7733 191.1 79.2353 191.081 79.87C191.063 80.2247 191.063 80.5513 191.081 80.85C191.1 81.494 191.245 81.9607 191.515 82.25C191.795 82.5393 192.169 82.684 192.635 82.684C192.999 82.684 193.293 82.6093 193.517 82.46C193.741 82.3013 193.923 82.0353 194.063 81.662C194.11 81.5687 194.157 81.4987 194.203 81.452C194.259 81.4053 194.334 81.382 194.427 81.382H195.659C195.753 81.382 195.832 81.4147 195.897 81.48C195.972 81.536 196.005 81.6153 195.995 81.718C195.986 81.886 195.939 82.0773 195.855 82.292C195.781 82.4973 195.655 82.712 195.477 82.936C195.309 83.1507 195.095 83.3513 194.833 83.538C194.572 83.7153 194.255 83.86 193.881 83.972C193.517 84.084 193.093 84.14 192.607 84.14ZM200.069 84.14C199.584 84.14 199.145 84.0467 198.753 83.86C198.361 83.664 198.049 83.4073 197.815 83.09C197.591 82.7633 197.479 82.3993 197.479 81.998C197.479 81.3447 197.745 80.8267 198.277 80.444C198.809 80.052 199.505 79.7907 200.363 79.66L202.281 79.38V79.086C202.281 78.694 202.183 78.3907 201.987 78.176C201.791 77.9613 201.455 77.854 200.979 77.854C200.643 77.854 200.368 77.924 200.153 78.064C199.948 78.1947 199.794 78.372 199.691 78.596C199.617 78.7173 199.509 78.778 199.369 78.778H198.263C198.161 78.778 198.081 78.75 198.025 78.694C197.979 78.638 197.955 78.5633 197.955 78.47C197.965 78.3207 198.025 78.1387 198.137 77.924C198.259 77.7093 198.436 77.504 198.669 77.308C198.912 77.1027 199.225 76.93 199.607 76.79C199.99 76.65 200.452 76.58 200.993 76.58C201.581 76.58 202.076 76.6547 202.477 76.804C202.888 76.944 203.215 77.1353 203.457 77.378C203.7 77.6207 203.877 77.9053 203.989 78.232C204.101 78.5587 204.157 78.904 204.157 79.268V83.664C204.157 83.7573 204.125 83.8367 204.059 83.902C203.994 83.9673 203.915 84 203.821 84H202.687C202.585 84 202.501 83.9673 202.435 83.902C202.379 83.8367 202.351 83.7573 202.351 83.664V83.118C202.23 83.286 202.067 83.4493 201.861 83.608C201.656 83.7667 201.404 83.8973 201.105 84C200.816 84.0933 200.471 84.14 200.069 84.14ZM200.545 82.81C200.872 82.81 201.166 82.74 201.427 82.6C201.698 82.46 201.908 82.2453 202.057 81.956C202.216 81.6573 202.295 81.284 202.295 80.836V80.542L200.895 80.766C200.345 80.85 199.934 80.9853 199.663 81.172C199.393 81.3587 199.257 81.5873 199.257 81.858C199.257 82.0633 199.318 82.2407 199.439 82.39C199.57 82.53 199.733 82.6373 199.929 82.712C200.125 82.7773 200.331 82.81 200.545 82.81ZM209.675 84C209.115 84 208.644 83.902 208.261 83.706C207.878 83.51 207.594 83.2207 207.407 82.838C207.22 82.446 207.127 81.9607 207.127 81.382V78.204H206.021C205.928 78.204 205.848 78.1713 205.783 78.106C205.718 78.0407 205.685 77.9567 205.685 77.854V77.056C205.685 76.9627 205.718 76.8833 205.783 76.818C205.848 76.7527 205.928 76.72 206.021 76.72H207.127V74.396C207.127 74.3027 207.155 74.2233 207.211 74.158C207.276 74.0927 207.36 74.06 207.463 74.06H208.597C208.69 74.06 208.77 74.0927 208.835 74.158C208.9 74.2233 208.933 74.3027 208.933 74.396V76.72H210.683C210.776 76.72 210.856 76.7527 210.921 76.818C210.986 76.8833 211.019 76.9627 211.019 77.056V77.854C211.019 77.9567 210.986 78.0407 210.921 78.106C210.856 78.1713 210.776 78.204 210.683 78.204H208.933V81.242C208.933 81.6247 208.998 81.9233 209.129 82.138C209.269 82.3527 209.507 82.46 209.843 82.46H210.809C210.902 82.46 210.982 82.4927 211.047 82.558C211.112 82.6233 211.145 82.7027 211.145 82.796V83.664C211.145 83.7573 211.112 83.8367 211.047 83.902C210.982 83.9673 210.902 84 210.809 84H209.675ZM213.223 84C213.13 84 213.05 83.9673 212.985 83.902C212.92 83.8367 212.887 83.7573 212.887 83.664V77.056C212.887 76.9627 212.92 76.8833 212.985 76.818C213.05 76.7527 213.13 76.72 213.223 76.72H214.385C214.488 76.72 214.567 76.7527 214.623 76.818C214.688 76.8833 214.721 76.9627 214.721 77.056V83.664C214.721 83.7573 214.688 83.8367 214.623 83.902C214.567 83.9673 214.488 84 214.385 84H213.223ZM213.167 75.516C213.074 75.516 212.994 75.4833 212.929 75.418C212.864 75.3527 212.831 75.2733 212.831 75.18V74.172C212.831 74.0787 212.864 73.9993 212.929 73.934C212.994 73.8687 213.074 73.836 213.167 73.836H214.441C214.544 73.836 214.628 73.8687 214.693 73.934C214.758 73.9993 214.791 74.0787 214.791 74.172V75.18C214.791 75.2733 214.758 75.3527 214.693 75.418C214.628 75.4833 214.544 75.516 214.441 75.516H213.167ZM220.298 84.14C219.552 84.14 218.922 84.0093 218.408 83.748C217.904 83.4867 217.517 83.118 217.246 82.642C216.985 82.166 216.836 81.6107 216.798 80.976C216.789 80.808 216.784 80.6027 216.784 80.36C216.784 80.1173 216.789 79.912 216.798 79.744C216.836 79.1 216.99 78.5447 217.26 78.078C217.54 77.602 217.932 77.2333 218.436 76.972C218.95 76.7107 219.57 76.58 220.298 76.58C221.026 76.58 221.642 76.7107 222.146 76.972C222.66 77.2333 223.052 77.602 223.322 78.078C223.602 78.5447 223.761 79.1 223.798 79.744C223.808 79.912 223.812 80.1173 223.812 80.36C223.812 80.6027 223.808 80.808 223.798 80.976C223.761 81.6107 223.607 82.166 223.336 82.642C223.075 83.118 222.688 83.4867 222.174 83.748C221.67 84.0093 221.045 84.14 220.298 84.14ZM220.298 82.754C220.793 82.754 221.176 82.6 221.446 82.292C221.717 81.9747 221.866 81.5127 221.894 80.906C221.904 80.766 221.908 80.584 221.908 80.36C221.908 80.136 221.904 79.954 221.894 79.814C221.866 79.2073 221.717 78.75 221.446 78.442C221.176 78.1247 220.793 77.966 220.298 77.966C219.804 77.966 219.421 78.1247 219.15 78.442C218.88 78.75 218.73 79.2073 218.702 79.814C218.693 79.954 218.688 80.136 218.688 80.36C218.688 80.584 218.693 80.766 218.702 80.906C218.73 81.5127 218.88 81.9747 219.15 82.292C219.421 82.6 219.804 82.754 220.298 82.754ZM226.199 84C226.106 84 226.027 83.9673 225.961 83.902C225.896 83.8367 225.863 83.7573 225.863 83.664V77.056C225.863 76.9627 225.896 76.8833 225.961 76.818C226.027 76.7527 226.106 76.72 226.199 76.72H227.347C227.441 76.72 227.52 76.7527 227.585 76.818C227.651 76.8833 227.683 76.9627 227.683 77.056V77.63C227.926 77.3313 228.234 77.084 228.607 76.888C228.99 76.6827 229.461 76.58 230.021 76.58C230.591 76.58 231.085 76.7107 231.505 76.972C231.925 77.224 232.247 77.5833 232.471 78.05C232.705 78.5167 232.821 79.0767 232.821 79.73V83.664C232.821 83.7573 232.789 83.8367 232.723 83.902C232.658 83.9673 232.579 84 232.485 84H231.253C231.16 84 231.081 83.9673 231.015 83.902C230.95 83.8367 230.917 83.7573 230.917 83.664V79.814C230.917 79.2727 230.782 78.848 230.511 78.54C230.25 78.232 229.867 78.078 229.363 78.078C228.878 78.078 228.491 78.232 228.201 78.54C227.912 78.848 227.767 79.2727 227.767 79.814V83.664C227.767 83.7573 227.735 83.8367 227.669 83.902C227.604 83.9673 227.525 84 227.431 84H226.199Z" fill="#09051C"/>
<defs>
<filter id="filter0_d_169_23777" x="-23" y="0" width="422" height="157" filterUnits="userSpaceOnUse" color-interpolation-filters="sRGB">
<feFlood flood-opacity="0" result="BackgroundImageFix"/>
<feColorMatrix in="SourceAlpha" type="matrix" values="0 0 0 0 0 0 0 0 0 0 0 0 0 0 0 0 0 0 127 0" result="hardAlpha"/>
<feOffset/>
<feGaussianBlur stdDeviation="25"/>
<feColorMatrix type="matrix" values="0 0 0 0 0.352941 0 0 0 0 0.423529 0 0 0 0 0.917647 0 0 0 0.07 0"/>
<feBlend mode="normal" in2="BackgroundImageFix" result="effect1_dropShadow_169_23777"/>
<feBlend mode="normal" in="SourceGraphic" in2="effect1_dropShadow_169_23777" result="shape"/>
</filter>
</defs>
</svg>
