<svg width="118" height="21" viewBox="0 0 118 21" fill="none" xmlns="http://www.w3.org/2000/svg">
<g filter="url(#filter0_d_192_866)">
<path d="M4.26 12H6.135V7.065H11.175V12H13.05V0.9H11.175V5.325H6.135V0.9H4.26V12ZM18.7336 12.165C20.1586 12.165 21.2536 11.64 22.0786 10.725L21.1036 9.765C20.5036 10.35 19.9036 10.695 18.8686 10.695C17.6986 10.695 16.8136 10.065 16.7386 8.625H22.1836V8.19C22.1836 4.95 20.4736 3.885 18.6886 3.885C17.0386 3.885 14.8936 4.995 14.8936 8.025C14.8936 10.95 16.7386 12.165 18.7336 12.165ZM16.7686 7.245C16.9486 5.895 17.7736 5.385 18.6736 5.385C19.7836 5.385 20.3836 6.03 20.4886 7.245H16.7686ZM23.8104 12H25.6554V6.96C26.1804 6.105 26.9304 5.55 28.1154 5.55C28.2204 5.55 28.5204 5.565 28.6104 5.58L28.6704 3.885H28.5504C27.0354 3.885 26.1804 4.545 25.6854 5.34H25.6554V4.035H23.8104V12ZM34.117 12.12C36.157 12.12 37.522 10.77 37.522 8.01C37.522 5.25 36.187 3.885 34.372 3.885C33.187 3.885 32.362 4.455 31.837 5.085V0.9H29.992V12H31.837V11.115C32.422 11.775 33.262 12.12 34.117 12.12ZM33.712 10.65C33.052 10.65 32.332 10.305 31.837 9.66V6.465C32.272 5.94 33.007 5.46 33.772 5.46C34.957 5.46 35.677 6.345 35.677 8.025C35.677 9.795 35.107 10.65 33.712 10.65ZM40.7555 12.12C41.9405 12.12 42.8855 11.805 43.6955 10.98C43.6955 11.43 43.7705 11.67 43.8755 12H45.7355C45.5705 11.595 45.5105 11.01 45.5105 10.05V6.765C45.5105 4.905 44.7755 3.885 42.6455 3.885C40.9955 3.885 39.6605 4.545 38.8055 5.325L39.7055 6.48C40.3805 5.94 41.2805 5.4 42.3905 5.4C43.2755 5.4 43.6955 5.745 43.6955 6.54V6.78C39.9755 7.2 38.5055 8.355 38.5055 10.08C38.5055 11.4 39.4655 12.12 40.7555 12.12ZM41.4305 10.695C40.7555 10.695 40.3205 10.365 40.3205 9.735C40.3205 8.865 41.4905 8.325 43.6955 8.025V9.78C43.1105 10.335 42.3755 10.695 41.4305 10.695ZM47.5719 12H49.4319V0.9H47.5719V12ZM55.5735 12H57.4335V7.785H59.3985C61.6785 7.785 63.7335 6.99 63.7335 4.305C63.7335 1.74 61.8585 0.9 59.4585 0.9H55.5735V12ZM57.4335 6.15V2.61H59.4735C61.1385 2.61 61.8885 3.135 61.8885 4.365C61.8885 5.64 61.1385 6.15 59.4885 6.15H57.4335ZM66.5807 12.12C67.7657 12.12 68.7107 11.805 69.5207 10.98C69.5207 11.43 69.5957 11.67 69.7007 12H71.5607C71.3957 11.595 71.3357 11.01 71.3357 10.05V6.765C71.3357 4.905 70.6007 3.885 68.4707 3.885C66.8207 3.885 65.4857 4.545 64.6307 5.325L65.5307 6.48C66.2057 5.94 67.1057 5.4 68.2157 5.4C69.1007 5.4 69.5207 5.745 69.5207 6.54V6.78C65.8007 7.2 64.3307 8.355 64.3307 10.08C64.3307 11.4 65.2907 12.12 66.5807 12.12ZM67.2557 10.695C66.5807 10.695 66.1457 10.365 66.1457 9.735C66.1457 8.865 67.3157 8.325 69.5207 8.025V9.78C68.9357 10.335 68.2007 10.695 67.2557 10.695ZM73.3221 12H75.1821V6.495C75.8571 5.88 76.5321 5.46 77.3421 5.46C78.1521 5.46 78.5271 5.865 78.5271 6.75V12H80.3871V6.285C80.3871 4.71 79.4871 3.885 78.0921 3.885C76.6521 3.885 75.6921 4.575 75.1821 5.115V4.035H73.3221V12ZM85.6302 12.165C87.5502 12.165 88.4952 11.1 89.0652 9.825L87.5352 9.27C87.1002 10.395 86.5152 10.65 85.6752 10.65C84.4602 10.65 83.7702 9.72 83.7702 8.025C83.7702 6.12 84.6552 5.43 85.7052 5.43C86.5902 5.43 87.1602 5.865 87.4752 6.765L89.0352 6.21C88.5552 4.98 87.7152 3.885 85.7352 3.885C83.9652 3.885 81.9102 4.98 81.9102 8.025C81.9102 10.935 83.7852 12.165 85.6302 12.165ZM92.2008 12.12C93.3858 12.12 94.3308 11.805 95.1408 10.98C95.1408 11.43 95.2158 11.67 95.3208 12H97.1808C97.0158 11.595 96.9558 11.01 96.9558 10.05V6.765C96.9558 4.905 96.2208 3.885 94.0908 3.885C92.4408 3.885 91.1058 4.545 90.2508 5.325L91.1508 6.48C91.8258 5.94 92.7258 5.4 93.8358 5.4C94.7208 5.4 95.1408 5.745 95.1408 6.54V6.78C91.4208 7.2 89.9508 8.355 89.9508 10.08C89.9508 11.4 90.9108 12.12 92.2008 12.12ZM92.8758 10.695C92.2008 10.695 91.7658 10.365 91.7658 9.735C91.7658 8.865 92.9358 8.325 95.1408 8.025V9.78C94.5558 10.335 93.8208 10.695 92.8758 10.695ZM98.9422 12H100.787V9.705L102.062 8.31L104.117 12H106.052L103.232 6.945L105.827 4.035H103.802L100.787 7.515V0.9H98.9422V12ZM110.404 12.165C111.829 12.165 112.924 11.64 113.749 10.725L112.774 9.765C112.174 10.35 111.574 10.695 110.539 10.695C109.369 10.695 108.484 10.065 108.409 8.625H113.854V8.19C113.854 4.95 112.144 3.885 110.359 3.885C108.709 3.885 106.564 4.995 106.564 8.025C106.564 10.95 108.409 12.165 110.404 12.165ZM108.439 7.245C108.619 5.895 109.444 5.385 110.344 5.385C111.454 5.385 112.054 6.03 112.159 7.245H108.439Z" fill="#09051C"/>
</g>
<defs>
<filter id="filter0_d_192_866" x="0.259766" y="0.900024" width="117.594" height="19.265" filterUnits="userSpaceOnUse" color-interpolation-filters="sRGB">
<feFlood flood-opacity="0" result="BackgroundImageFix"/>
<feColorMatrix in="SourceAlpha" type="matrix" values="0 0 0 0 0 0 0 0 0 0 0 0 0 0 0 0 0 0 127 0" result="hardAlpha"/>
<feOffset dy="4"/>
<feGaussianBlur stdDeviation="2"/>
<feComposite in2="hardAlpha" operator="out"/>
<feColorMatrix type="matrix" values="0 0 0 0 0 0 0 0 0 0 0 0 0 0 0 0 0 0 0.25 0"/>
<feBlend mode="normal" in2="BackgroundImageFix" result="effect1_dropShadow_192_866"/>
<feBlend mode="normal" in="SourceGraphic" in2="effect1_dropShadow_192_866" result="shape"/>
</filter>
</defs>
</svg>
