<svg width="141" height="57" viewBox="0 0 141 57" fill="none" xmlns="http://www.w3.org/2000/svg">
<rect width="141" height="57" rx="15" fill="url(#paint0_linear_182_1575)"/>
<path d="M50.216 33H58.04V30.888H52.824V21.16H50.216V33ZM62.9894 33.176C65.0534 33.176 67.3414 32.056 67.3414 28.744C67.3414 25.4 65.0534 24.296 62.9894 24.296C60.9094 24.296 58.6214 25.4 58.6214 28.744C58.6214 32.056 60.9254 33.176 62.9894 33.176ZM62.9894 31.368C61.6774 31.368 61.1974 30.184 61.1974 28.76C61.1974 27.224 61.7574 26.184 62.9894 26.184C64.2694 26.184 64.7654 27.336 64.7654 28.76C64.7654 30.312 64.2054 31.368 62.9894 31.368ZM72.1954 36.2C75.0274 36.2 77.0914 35.352 77.0914 33.592C77.0914 31.992 75.9074 31.288 72.9794 31.176L71.6994 31.096C71.0754 31.064 70.7394 31 70.7394 30.68C70.7394 30.52 70.8514 30.392 71.0274 30.248C71.4114 30.328 71.8594 30.392 72.3394 30.392C74.7874 30.392 76.1154 29.08 76.1154 27.352C76.1154 27.016 76.0514 26.728 75.9554 26.504C76.5634 26.344 77.0914 26.312 77.3954 26.312V24.344C76.6914 24.392 75.7794 24.728 75.2034 25.224C74.5634 24.648 73.6034 24.296 72.3394 24.296C69.8754 24.296 68.4994 25.64 68.4994 27.352C68.4994 28.376 68.9794 29.256 69.9074 29.8C69.2354 30.232 68.6754 30.84 68.6754 31.544C68.6754 31.992 68.8834 32.328 69.2514 32.568C68.4674 32.888 67.7794 33.448 67.7794 34.28C67.7794 35.48 68.8674 36.2 72.1954 36.2ZM72.3714 28.968C71.4434 28.968 70.9154 28.312 70.9154 27.448C70.9154 26.584 71.4274 25.928 72.3714 25.928C73.3314 25.928 73.8274 26.584 73.8274 27.448C73.8274 28.312 73.3154 28.968 72.3714 28.968ZM72.6114 34.904C70.8674 34.904 70.1794 34.552 70.1794 33.816C70.1794 33.528 70.3394 33.256 70.6594 33.048C70.8354 33.064 71.0274 33.08 71.2194 33.096L72.5634 33.16C74.5794 33.256 74.8354 33.496 74.8354 34.024C74.8354 34.584 73.9234 34.904 72.6114 34.904ZM78.7591 23.304H81.3511V21.24H78.7591V23.304ZM78.7751 33H81.3351V24.472H78.7751V33ZM83.3983 33H85.9743V27.272C86.5503 26.776 87.1423 26.424 87.8303 26.424C88.5503 26.424 88.8383 26.824 88.8383 27.592V33H91.3983V26.776C91.3983 25.016 90.3583 24.296 88.9183 24.296C87.4303 24.296 86.4863 25.144 85.9743 25.816V24.472H83.3983V33Z" fill="white"/>
<defs>
<linearGradient id="paint0_linear_182_1575" x1="-1.99945e-07" y1="-3.5" x2="145.331" y2="52.1997" gradientUnits="userSpaceOnUse">
<stop stop-color="#53E88B"/>
<stop offset="1" stop-color="#15BE77"/>
</linearGradient>
</defs>
</svg>
