<svg width="325" height="57" viewBox="0 0 325 57" fill="none" xmlns="http://www.w3.org/2000/svg">
<rect width="325" height="57" rx="15" fill="#FEFEFF"/>
<path d="M107.064 33H109.332V29.318H110.802C112.874 29.318 115.058 28.744 115.058 25.958C115.058 23.228 113.042 22.64 110.83 22.64H107.064V33ZM109.332 27.554V24.502H110.886C112.314 24.502 112.832 25.048 112.832 26.014C112.832 27.008 112.3 27.554 110.886 27.554H109.332ZM116.899 33H119.139V22.64H116.899V33ZM123.068 33.112C124.174 33.112 124.986 32.678 125.672 31.908C125.672 32.328 125.742 32.692 125.84 33H128.08C127.926 32.622 127.87 32.076 127.87 31.18V28.31C127.87 26.392 127.03 25.384 124.986 25.384C123.124 25.384 122.004 26.042 121.262 26.714L122.214 28.002C122.9 27.47 123.712 27.078 124.664 27.078C125.392 27.078 125.672 27.428 125.672 27.974V28.156C122.396 28.422 120.94 29.374 120.94 31.096C120.94 32.37 121.92 33.112 123.068 33.112ZM123.964 31.418C123.474 31.418 123.138 31.18 123.138 30.704C123.138 30.018 123.894 29.57 125.672 29.388V30.774C125.294 31.152 124.748 31.418 123.964 31.418ZM133.272 33.154C135.246 33.154 136.17 32.048 136.646 30.886L134.784 30.242C134.462 31.25 133.916 31.572 133.314 31.572C132.278 31.572 131.858 30.62 131.858 29.29C131.858 27.806 132.432 27.036 133.342 27.036C134 27.036 134.434 27.344 134.728 28.296L136.618 27.666C136.184 26.462 135.4 25.384 133.37 25.384C131.718 25.384 129.604 26.294 129.604 29.276C129.604 32.174 131.522 33.154 133.272 33.154ZM141.596 33.154C142.898 33.154 143.976 32.776 144.844 32.034L143.976 30.69C143.472 31.152 142.646 31.586 141.764 31.586C140.826 31.586 140.14 31.11 140.028 29.878H144.97V29.542C144.97 26.154 143.08 25.384 141.54 25.384C140 25.384 137.788 26.378 137.788 29.276C137.788 32.16 139.65 33.154 141.596 33.154ZM140.056 28.548C140.224 27.456 140.826 26.994 141.526 26.994C142.366 26.994 142.842 27.498 142.954 28.548H140.056ZM151.244 33H153.288V25.818H153.316C153.54 27.008 153.68 27.456 153.918 28.24L155.458 33H157.474L159.028 28.24C159.252 27.484 159.448 26.826 159.602 25.93H159.63V33H161.828V22.64H158.748L156.592 30.256H156.564L154.254 22.64H151.244V33ZM165.425 35.856C166.923 35.856 167.609 35.072 168.113 33.784L171.249 25.538H169.065L167.413 30.382H167.385L165.747 25.538H163.423L166.279 33.042L166.139 33.406C165.957 33.868 165.677 34.05 165.187 34.05C164.515 34.05 163.983 33.91 163.773 33.854L163.297 35.59C163.689 35.702 164.319 35.856 165.425 35.856ZM181.448 33.196C183.94 33.196 186.32 31.46 186.32 27.82C186.32 24.18 183.94 22.444 181.448 22.444C178.942 22.444 176.562 24.18 176.562 27.82C176.562 31.46 178.942 33.196 181.448 33.196ZM181.448 31.362C179.838 31.362 178.844 29.99 178.844 27.82C178.844 25.65 179.838 24.334 181.448 24.334C183.044 24.334 184.052 25.65 184.052 27.82C184.052 29.99 183.044 31.362 181.448 31.362ZM188.129 33H190.383V28.366C190.803 27.82 191.475 27.344 192.371 27.344C192.511 27.344 192.875 27.372 192.959 27.386L192.987 25.384H192.917C191.517 25.384 190.803 26.154 190.397 26.784H190.383V25.538H188.129V33ZM196.699 33.112C197.805 33.112 198.505 32.552 198.995 31.88C198.995 32.258 199.065 32.818 199.163 33H201.473C201.305 32.622 201.249 32.076 201.249 31.18V22.64H198.995V26.476C198.463 25.748 197.735 25.384 196.727 25.384C195.019 25.384 193.829 26.756 193.829 29.332C193.829 31.908 195.005 33.112 196.699 33.112ZM197.539 31.418C196.531 31.418 196.083 30.564 196.083 29.318C196.083 27.96 196.573 27.246 197.511 27.246C198.099 27.246 198.505 27.47 198.995 27.932V30.69C198.631 31.068 198.113 31.418 197.539 31.418ZM206.873 33.154C208.175 33.154 209.253 32.776 210.121 32.034L209.253 30.69C208.749 31.152 207.923 31.586 207.041 31.586C206.103 31.586 205.417 31.11 205.305 29.878H210.247V29.542C210.247 26.154 208.357 25.384 206.817 25.384C205.277 25.384 203.065 26.378 203.065 29.276C203.065 32.16 204.927 33.154 206.873 33.154ZM205.333 28.548C205.501 27.456 206.103 26.994 206.803 26.994C207.643 26.994 208.119 27.498 208.231 28.548H205.333ZM212.051 33H214.305V28.366C214.725 27.82 215.397 27.344 216.293 27.344C216.433 27.344 216.797 27.372 216.881 27.386L216.909 25.384H216.839C215.439 25.384 214.725 26.154 214.319 26.784H214.305V25.538H212.051V33Z" fill="url(#paint0_linear_197_803)"/>
<defs>
<linearGradient id="paint0_linear_197_803" x1="106" y1="21.1404" x2="158.201" y2="85.842" gradientUnits="userSpaceOnUse">
<stop stop-color="#53E88B"/>
<stop offset="1" stop-color="#15BE77"/>
</linearGradient>
</defs>
</svg>
